<mxfile host="app.diagrams.net" modified="2020-11-25T11:10:00.706Z" agent="5.0 (Windows NT 10.0; Win64; x64) AppleWebKit/537.36 (KHTML, like Gecko) Chrome/87.0.4280.66 Safari/537.36" etag="P9Fk3T-mDhutXvkQit2q" version="13.10.2" type="github">
  <diagram id="C5RBs43oDa-KdzZeNtuy" name="Page-1">
    <mxGraphModel dx="1422" dy="762" grid="1" gridSize="10" guides="1" tooltips="1" connect="1" arrows="1" fold="1" page="1" pageScale="1" pageWidth="827" pageHeight="1169" math="0" shadow="0">
      <root>
        <mxCell id="WIyWlLk6GJQsqaUBKTNV-0" />
        <mxCell id="WIyWlLk6GJQsqaUBKTNV-1" parent="WIyWlLk6GJQsqaUBKTNV-0" />
        <mxCell id="y_4XGHRnrFUpQpmTQRgS-75" value="" style="rounded=0;whiteSpace=wrap;html=1;fillColor=none;fontSize=14;align=right;" vertex="1" parent="WIyWlLk6GJQsqaUBKTNV-1">
          <mxGeometry x="14" y="50" width="800" height="730" as="geometry" />
        </mxCell>
        <mxCell id="y_4XGHRnrFUpQpmTQRgS-1" value="&lt;b&gt;&lt;font style=&quot;font-size: 16px&quot;&gt;Flowchart of Insertion and Extraction Test Automation System without communication and feedback&lt;/font&gt;&lt;/b&gt;" style="text;html=1;strokeColor=none;fillColor=none;align=left;verticalAlign=middle;whiteSpace=wrap;rounded=0;fontSize=14;" vertex="1" parent="WIyWlLk6GJQsqaUBKTNV-1">
          <mxGeometry x="20" y="10" width="840" height="30" as="geometry" />
        </mxCell>
        <mxCell id="y_4XGHRnrFUpQpmTQRgS-10" style="edgeStyle=orthogonalEdgeStyle;rounded=0;orthogonalLoop=1;jettySize=auto;html=1;exitX=1;exitY=0.5;exitDx=0;exitDy=0;entryX=0.5;entryY=0;entryDx=0;entryDy=0;fontSize=14;" edge="1" parent="WIyWlLk6GJQsqaUBKTNV-1" source="WIyWlLk6GJQsqaUBKTNV-6" target="y_4XGHRnrFUpQpmTQRgS-9">
          <mxGeometry relative="1" as="geometry" />
        </mxCell>
        <mxCell id="y_4XGHRnrFUpQpmTQRgS-11" style="edgeStyle=orthogonalEdgeStyle;rounded=0;orthogonalLoop=1;jettySize=auto;html=1;exitX=0;exitY=0.5;exitDx=0;exitDy=0;entryX=0.5;entryY=0;entryDx=0;entryDy=0;fontSize=14;" edge="1" parent="WIyWlLk6GJQsqaUBKTNV-1" source="WIyWlLk6GJQsqaUBKTNV-6" target="y_4XGHRnrFUpQpmTQRgS-8">
          <mxGeometry relative="1" as="geometry" />
        </mxCell>
        <mxCell id="WIyWlLk6GJQsqaUBKTNV-6" value="Test id is odd?" style="rhombus;whiteSpace=wrap;html=1;shadow=0;fontFamily=Helvetica;fontSize=12;align=center;strokeWidth=1;spacing=6;spacingTop=-4;" parent="WIyWlLk6GJQsqaUBKTNV-1" vertex="1">
          <mxGeometry x="140" y="220" width="115" height="50" as="geometry" />
        </mxCell>
        <mxCell id="y_4XGHRnrFUpQpmTQRgS-0" value="" style="endArrow=none;html=1;exitX=0.956;exitY=1.033;exitDx=0;exitDy=0;exitPerimeter=0;" edge="1" parent="WIyWlLk6GJQsqaUBKTNV-1" source="y_4XGHRnrFUpQpmTQRgS-1">
          <mxGeometry width="50" height="50" relative="1" as="geometry">
            <mxPoint x="810" y="40" as="sourcePoint" />
            <mxPoint x="10" y="40" as="targetPoint" />
          </mxGeometry>
        </mxCell>
        <mxCell id="y_4XGHRnrFUpQpmTQRgS-63" style="edgeStyle=orthogonalEdgeStyle;rounded=0;orthogonalLoop=1;jettySize=auto;html=1;exitX=0.5;exitY=1;exitDx=0;exitDy=0;entryX=0.5;entryY=0;entryDx=0;entryDy=0;fontSize=14;" edge="1" parent="WIyWlLk6GJQsqaUBKTNV-1" source="y_4XGHRnrFUpQpmTQRgS-3" target="y_4XGHRnrFUpQpmTQRgS-60">
          <mxGeometry relative="1" as="geometry" />
        </mxCell>
        <mxCell id="y_4XGHRnrFUpQpmTQRgS-3" value="Initialize parameters" style="rounded=1;whiteSpace=wrap;html=1;fontSize=14;align=center;" vertex="1" parent="WIyWlLk6GJQsqaUBKTNV-1">
          <mxGeometry x="140" y="130" width="115" height="40" as="geometry" />
        </mxCell>
        <mxCell id="y_4XGHRnrFUpQpmTQRgS-15" style="edgeStyle=orthogonalEdgeStyle;rounded=0;orthogonalLoop=1;jettySize=auto;html=1;exitX=0.5;exitY=1;exitDx=0;exitDy=0;entryX=0;entryY=0.5;entryDx=0;entryDy=0;fontSize=14;" edge="1" parent="WIyWlLk6GJQsqaUBKTNV-1" source="y_4XGHRnrFUpQpmTQRgS-8" target="y_4XGHRnrFUpQpmTQRgS-14">
          <mxGeometry relative="1" as="geometry" />
        </mxCell>
        <mxCell id="y_4XGHRnrFUpQpmTQRgS-8" value="Take Voyager #2" style="rounded=1;whiteSpace=wrap;html=1;fontSize=14;align=center;" vertex="1" parent="WIyWlLk6GJQsqaUBKTNV-1">
          <mxGeometry x="45" y="280" width="115" height="40" as="geometry" />
        </mxCell>
        <mxCell id="y_4XGHRnrFUpQpmTQRgS-16" style="edgeStyle=orthogonalEdgeStyle;rounded=0;orthogonalLoop=1;jettySize=auto;html=1;exitX=0.5;exitY=1;exitDx=0;exitDy=0;entryX=1;entryY=0.5;entryDx=0;entryDy=0;fontSize=14;" edge="1" parent="WIyWlLk6GJQsqaUBKTNV-1" source="y_4XGHRnrFUpQpmTQRgS-9" target="y_4XGHRnrFUpQpmTQRgS-14">
          <mxGeometry relative="1" as="geometry" />
        </mxCell>
        <mxCell id="y_4XGHRnrFUpQpmTQRgS-9" value="Take Voyager #1" style="rounded=1;whiteSpace=wrap;html=1;fontSize=14;align=center;" vertex="1" parent="WIyWlLk6GJQsqaUBKTNV-1">
          <mxGeometry x="228.13" y="280" width="115" height="40" as="geometry" />
        </mxCell>
        <mxCell id="y_4XGHRnrFUpQpmTQRgS-19" style="edgeStyle=orthogonalEdgeStyle;rounded=0;orthogonalLoop=1;jettySize=auto;html=1;exitX=0.5;exitY=1;exitDx=0;exitDy=0;entryX=0.5;entryY=0;entryDx=0;entryDy=0;fontSize=14;" edge="1" parent="WIyWlLk6GJQsqaUBKTNV-1" source="y_4XGHRnrFUpQpmTQRgS-14" target="y_4XGHRnrFUpQpmTQRgS-18">
          <mxGeometry relative="1" as="geometry" />
        </mxCell>
        <mxCell id="y_4XGHRnrFUpQpmTQRgS-14" value="" style="ellipse;whiteSpace=wrap;html=1;aspect=fixed;fontSize=14;align=left;" vertex="1" parent="WIyWlLk6GJQsqaUBKTNV-1">
          <mxGeometry x="187.5" y="340" width="20" height="20" as="geometry" />
        </mxCell>
        <mxCell id="y_4XGHRnrFUpQpmTQRgS-27" style="edgeStyle=orthogonalEdgeStyle;rounded=0;orthogonalLoop=1;jettySize=auto;html=1;exitX=0.5;exitY=1;exitDx=0;exitDy=0;entryX=0.5;entryY=0;entryDx=0;entryDy=0;fontSize=14;" edge="1" parent="WIyWlLk6GJQsqaUBKTNV-1" source="y_4XGHRnrFUpQpmTQRgS-18" target="y_4XGHRnrFUpQpmTQRgS-26">
          <mxGeometry relative="1" as="geometry" />
        </mxCell>
        <mxCell id="y_4XGHRnrFUpQpmTQRgS-18" value="Place Voyager upon PGN-PLUS-E-100-1 tool platform&amp;nbsp;" style="rounded=1;whiteSpace=wrap;html=1;fontSize=14;align=center;" vertex="1" parent="WIyWlLk6GJQsqaUBKTNV-1">
          <mxGeometry x="126.25" y="390" width="142.5" height="60" as="geometry" />
        </mxCell>
        <mxCell id="y_4XGHRnrFUpQpmTQRgS-74" style="edgeStyle=orthogonalEdgeStyle;rounded=0;jumpStyle=none;orthogonalLoop=1;jettySize=auto;html=1;exitX=0.5;exitY=1;exitDx=0;exitDy=0;entryX=0.5;entryY=0;entryDx=0;entryDy=0;fontSize=14;" edge="1" parent="WIyWlLk6GJQsqaUBKTNV-1" source="y_4XGHRnrFUpQpmTQRgS-21" target="y_4XGHRnrFUpQpmTQRgS-3">
          <mxGeometry relative="1" as="geometry" />
        </mxCell>
        <mxCell id="y_4XGHRnrFUpQpmTQRgS-21" value="start" style="ellipse;whiteSpace=wrap;html=1;fontSize=14;align=center;" vertex="1" parent="WIyWlLk6GJQsqaUBKTNV-1">
          <mxGeometry x="151.87" y="80" width="90" height="30" as="geometry" />
        </mxCell>
        <mxCell id="y_4XGHRnrFUpQpmTQRgS-23" value="Test id is odd?" style="rhombus;whiteSpace=wrap;html=1;shadow=0;fontFamily=Helvetica;fontSize=12;align=center;strokeWidth=1;spacing=6;spacingTop=-4;" vertex="1" parent="WIyWlLk6GJQsqaUBKTNV-1">
          <mxGeometry x="140" y="220" width="115" height="50" as="geometry" />
        </mxCell>
        <mxCell id="y_4XGHRnrFUpQpmTQRgS-31" style="edgeStyle=orthogonalEdgeStyle;rounded=0;orthogonalLoop=1;jettySize=auto;html=1;exitX=0.5;exitY=1;exitDx=0;exitDy=0;entryX=0.5;entryY=0;entryDx=0;entryDy=0;fontSize=14;" edge="1" parent="WIyWlLk6GJQsqaUBKTNV-1" source="y_4XGHRnrFUpQpmTQRgS-26" target="y_4XGHRnrFUpQpmTQRgS-30">
          <mxGeometry relative="1" as="geometry" />
        </mxCell>
        <mxCell id="y_4XGHRnrFUpQpmTQRgS-26" value="PGN-PLUS-E-100-1 fix Voyager&amp;nbsp;" style="rounded=1;whiteSpace=wrap;html=1;fontSize=14;align=center;" vertex="1" parent="WIyWlLk6GJQsqaUBKTNV-1">
          <mxGeometry x="125" y="480" width="143.75" height="50" as="geometry" />
        </mxCell>
        <mxCell id="y_4XGHRnrFUpQpmTQRgS-88" style="edgeStyle=orthogonalEdgeStyle;rounded=0;jumpStyle=none;orthogonalLoop=1;jettySize=auto;html=1;exitX=0.5;exitY=1;exitDx=0;exitDy=0;entryX=0.5;entryY=1;entryDx=0;entryDy=0;fontSize=14;" edge="1" parent="WIyWlLk6GJQsqaUBKTNV-1" source="y_4XGHRnrFUpQpmTQRgS-28" target="y_4XGHRnrFUpQpmTQRgS-87">
          <mxGeometry relative="1" as="geometry" />
        </mxCell>
        <mxCell id="y_4XGHRnrFUpQpmTQRgS-28" value="Take stick from pallet" style="rounded=1;whiteSpace=wrap;html=1;fontSize=14;align=center;" vertex="1" parent="WIyWlLk6GJQsqaUBKTNV-1">
          <mxGeometry x="125" y="680" width="143.75" height="40" as="geometry" />
        </mxCell>
        <mxCell id="y_4XGHRnrFUpQpmTQRgS-39" style="edgeStyle=orthogonalEdgeStyle;rounded=0;orthogonalLoop=1;jettySize=auto;html=1;exitX=0;exitY=0.5;exitDx=0;exitDy=0;fontSize=14;entryX=0;entryY=0.5;entryDx=0;entryDy=0;" edge="1" parent="WIyWlLk6GJQsqaUBKTNV-1" source="y_4XGHRnrFUpQpmTQRgS-30" target="y_4XGHRnrFUpQpmTQRgS-57">
          <mxGeometry relative="1" as="geometry">
            <mxPoint x="116.13" y="660" as="targetPoint" />
          </mxGeometry>
        </mxCell>
        <mxCell id="y_4XGHRnrFUpQpmTQRgS-30" value="stick id is last&lt;br&gt;&amp;nbsp;of pallet?" style="rhombus;whiteSpace=wrap;html=1;shadow=0;fontFamily=Helvetica;fontSize=12;align=center;strokeWidth=1;spacing=6;spacingTop=-4;" vertex="1" parent="WIyWlLk6GJQsqaUBKTNV-1">
          <mxGeometry x="136.56" y="550" width="120.62" height="60" as="geometry" />
        </mxCell>
        <mxCell id="y_4XGHRnrFUpQpmTQRgS-33" value="&lt;span style=&quot;color: rgb(0 , 0 , 0) ; font-family: &amp;#34;helvetica&amp;#34; ; font-size: 12px ; font-style: normal ; font-weight: 400 ; letter-spacing: normal ; text-align: center ; text-indent: 0px ; text-transform: none ; word-spacing: 0px ; background-color: rgb(248 , 249 , 250) ; display: inline ; float: none&quot;&gt;Test id + +&lt;/span&gt;" style="text;whiteSpace=wrap;html=1;fontSize=14;" vertex="1" parent="WIyWlLk6GJQsqaUBKTNV-1">
          <mxGeometry x="170" y="310" width="65" height="30" as="geometry" />
        </mxCell>
        <mxCell id="y_4XGHRnrFUpQpmTQRgS-35" value="" style="strokeWidth=2;html=1;shape=mxgraph.flowchart.annotation_2;align=left;labelPosition=right;pointerEvents=1;fontSize=14;" vertex="1" parent="WIyWlLk6GJQsqaUBKTNV-1">
          <mxGeometry x="258.13" y="125" width="15" height="45" as="geometry" />
        </mxCell>
        <mxCell id="y_4XGHRnrFUpQpmTQRgS-36" value="Test id =1;" style="text;html=1;strokeColor=none;fillColor=none;align=center;verticalAlign=middle;whiteSpace=wrap;rounded=0;fontSize=14;" vertex="1" parent="WIyWlLk6GJQsqaUBKTNV-1">
          <mxGeometry x="280" y="125" width="73.13" height="20" as="geometry" />
        </mxCell>
        <mxCell id="y_4XGHRnrFUpQpmTQRgS-38" value="End" style="ellipse;whiteSpace=wrap;html=1;fontSize=14;align=center;" vertex="1" parent="WIyWlLk6GJQsqaUBKTNV-1">
          <mxGeometry x="577.5" y="477.5" width="90" height="30" as="geometry" />
        </mxCell>
        <mxCell id="y_4XGHRnrFUpQpmTQRgS-43" value="no" style="text;html=1;align=center;verticalAlign=middle;resizable=0;points=[];autosize=1;fontSize=14;" vertex="1" parent="WIyWlLk6GJQsqaUBKTNV-1">
          <mxGeometry x="106.56" y="250" width="30" height="20" as="geometry" />
        </mxCell>
        <mxCell id="y_4XGHRnrFUpQpmTQRgS-45" value="yes" style="text;html=1;align=center;verticalAlign=middle;resizable=0;points=[];autosize=1;fontSize=14;" vertex="1" parent="WIyWlLk6GJQsqaUBKTNV-1">
          <mxGeometry x="245.63" y="250" width="40" height="20" as="geometry" />
        </mxCell>
        <mxCell id="y_4XGHRnrFUpQpmTQRgS-47" value="no,&amp;nbsp;&lt;br&gt;stick id ++&lt;br&gt;" style="text;html=1;strokeColor=none;fillColor=none;align=left;verticalAlign=middle;whiteSpace=wrap;rounded=0;fontSize=14;" vertex="1" parent="WIyWlLk6GJQsqaUBKTNV-1">
          <mxGeometry x="116.87" y="590" width="70" height="40" as="geometry" />
        </mxCell>
        <mxCell id="y_4XGHRnrFUpQpmTQRgS-53" style="edgeStyle=orthogonalEdgeStyle;rounded=0;orthogonalLoop=1;jettySize=auto;html=1;exitX=0.5;exitY=1;exitDx=0;exitDy=0;entryX=0.5;entryY=0;entryDx=0;entryDy=0;fontSize=14;" edge="1" parent="WIyWlLk6GJQsqaUBKTNV-1" source="y_4XGHRnrFUpQpmTQRgS-49" target="y_4XGHRnrFUpQpmTQRgS-38">
          <mxGeometry relative="1" as="geometry" />
        </mxCell>
        <mxCell id="y_4XGHRnrFUpQpmTQRgS-64" style="rounded=0;orthogonalLoop=1;jettySize=auto;html=1;exitX=1;exitY=0.5;exitDx=0;exitDy=0;entryX=1;entryY=0.5;entryDx=0;entryDy=0;fontSize=14;edgeStyle=orthogonalEdgeStyle;elbow=vertical;jumpStyle=none;" edge="1" parent="WIyWlLk6GJQsqaUBKTNV-1" source="y_4XGHRnrFUpQpmTQRgS-49" target="y_4XGHRnrFUpQpmTQRgS-60">
          <mxGeometry relative="1" as="geometry">
            <Array as="points">
              <mxPoint x="730" y="435" />
              <mxPoint x="730" y="195" />
            </Array>
          </mxGeometry>
        </mxCell>
        <mxCell id="y_4XGHRnrFUpQpmTQRgS-49" value="is last loop?" style="rhombus;whiteSpace=wrap;html=1;fontSize=14;align=center;" vertex="1" parent="WIyWlLk6GJQsqaUBKTNV-1">
          <mxGeometry x="570" y="410" width="105" height="50" as="geometry" />
        </mxCell>
        <mxCell id="y_4XGHRnrFUpQpmTQRgS-54" value="yes" style="text;html=1;align=center;verticalAlign=middle;resizable=0;points=[];autosize=1;fontSize=14;" vertex="1" parent="WIyWlLk6GJQsqaUBKTNV-1">
          <mxGeometry x="623.13" y="452.5" width="40" height="20" as="geometry" />
        </mxCell>
        <mxCell id="y_4XGHRnrFUpQpmTQRgS-58" style="edgeStyle=orthogonalEdgeStyle;rounded=0;orthogonalLoop=1;jettySize=auto;html=1;exitX=0.5;exitY=1;exitDx=0;exitDy=0;entryX=0.5;entryY=0;entryDx=0;entryDy=0;fontSize=14;" edge="1" parent="WIyWlLk6GJQsqaUBKTNV-1" source="y_4XGHRnrFUpQpmTQRgS-57" target="y_4XGHRnrFUpQpmTQRgS-28">
          <mxGeometry relative="1" as="geometry" />
        </mxCell>
        <mxCell id="y_4XGHRnrFUpQpmTQRgS-57" value="" style="ellipse;whiteSpace=wrap;html=1;aspect=fixed;fontSize=14;align=left;" vertex="1" parent="WIyWlLk6GJQsqaUBKTNV-1">
          <mxGeometry x="186.87" y="640" width="20" height="20" as="geometry" />
        </mxCell>
        <mxCell id="y_4XGHRnrFUpQpmTQRgS-65" style="edgeStyle=orthogonalEdgeStyle;rounded=0;orthogonalLoop=1;jettySize=auto;html=1;exitX=0.5;exitY=1;exitDx=0;exitDy=0;entryX=0.5;entryY=0;entryDx=0;entryDy=0;fontSize=14;" edge="1" parent="WIyWlLk6GJQsqaUBKTNV-1" source="y_4XGHRnrFUpQpmTQRgS-60" target="y_4XGHRnrFUpQpmTQRgS-23">
          <mxGeometry relative="1" as="geometry" />
        </mxCell>
        <mxCell id="y_4XGHRnrFUpQpmTQRgS-60" value="" style="ellipse;whiteSpace=wrap;html=1;aspect=fixed;fontSize=14;align=left;" vertex="1" parent="WIyWlLk6GJQsqaUBKTNV-1">
          <mxGeometry x="186.87" y="185" width="20" height="20" as="geometry" />
        </mxCell>
        <mxCell id="y_4XGHRnrFUpQpmTQRgS-67" value="no" style="text;html=1;align=center;verticalAlign=middle;resizable=0;points=[];autosize=1;fontSize=14;" vertex="1" parent="WIyWlLk6GJQsqaUBKTNV-1">
          <mxGeometry x="675" y="410" width="30" height="20" as="geometry" />
        </mxCell>
        <mxCell id="y_4XGHRnrFUpQpmTQRgS-68" value="etc." style="text;html=1;strokeColor=none;fillColor=none;align=center;verticalAlign=middle;whiteSpace=wrap;rounded=0;fontSize=14;" vertex="1" parent="WIyWlLk6GJQsqaUBKTNV-1">
          <mxGeometry x="273.13" y="150" width="70" height="20" as="geometry" />
        </mxCell>
        <mxCell id="y_4XGHRnrFUpQpmTQRgS-76" value="&lt;b&gt;&lt;i&gt;Universal Robot UR5e&lt;/i&gt;&lt;/b&gt;" style="text;html=1;strokeColor=none;fillColor=none;align=left;verticalAlign=middle;whiteSpace=wrap;rounded=0;fontSize=14;" vertex="1" parent="WIyWlLk6GJQsqaUBKTNV-1">
          <mxGeometry x="30" y="50" width="190" height="20" as="geometry" />
        </mxCell>
        <mxCell id="y_4XGHRnrFUpQpmTQRgS-78" value="" style="rounded=0;whiteSpace=wrap;html=1;fillColor=none;fontSize=14;align=right;" vertex="1" parent="WIyWlLk6GJQsqaUBKTNV-1">
          <mxGeometry x="14" y="800" width="490" height="100" as="geometry" />
        </mxCell>
        <mxCell id="y_4XGHRnrFUpQpmTQRgS-79" value="&lt;b&gt;&lt;i&gt;ATI Net F/T sensor&lt;/i&gt;&lt;/b&gt;" style="text;html=1;strokeColor=none;fillColor=none;align=left;verticalAlign=middle;whiteSpace=wrap;rounded=0;fontSize=14;" vertex="1" parent="WIyWlLk6GJQsqaUBKTNV-1">
          <mxGeometry x="30" y="800" width="190" height="20" as="geometry" />
        </mxCell>
        <mxCell id="y_4XGHRnrFUpQpmTQRgS-85" style="edgeStyle=orthogonalEdgeStyle;rounded=0;jumpStyle=none;orthogonalLoop=1;jettySize=auto;html=1;exitX=1;exitY=0.5;exitDx=0;exitDy=0;fontSize=14;" edge="1" parent="WIyWlLk6GJQsqaUBKTNV-1" source="y_4XGHRnrFUpQpmTQRgS-80" target="y_4XGHRnrFUpQpmTQRgS-83">
          <mxGeometry relative="1" as="geometry" />
        </mxCell>
        <mxCell id="y_4XGHRnrFUpQpmTQRgS-80" value="start" style="ellipse;whiteSpace=wrap;html=1;fontSize=14;align=center;" vertex="1" parent="WIyWlLk6GJQsqaUBKTNV-1">
          <mxGeometry x="45" y="840" width="90" height="30" as="geometry" />
        </mxCell>
        <mxCell id="y_4XGHRnrFUpQpmTQRgS-82" value="end" style="ellipse;whiteSpace=wrap;html=1;fontSize=14;align=center;" vertex="1" parent="WIyWlLk6GJQsqaUBKTNV-1">
          <mxGeometry x="400" y="840" width="90" height="30" as="geometry" />
        </mxCell>
        <mxCell id="y_4XGHRnrFUpQpmTQRgS-86" style="edgeStyle=orthogonalEdgeStyle;rounded=0;jumpStyle=none;orthogonalLoop=1;jettySize=auto;html=1;exitX=1;exitY=0.5;exitDx=0;exitDy=0;fontSize=14;" edge="1" parent="WIyWlLk6GJQsqaUBKTNV-1" source="y_4XGHRnrFUpQpmTQRgS-83" target="y_4XGHRnrFUpQpmTQRgS-82">
          <mxGeometry relative="1" as="geometry" />
        </mxCell>
        <mxCell id="y_4XGHRnrFUpQpmTQRgS-83" value="Sending&amp;nbsp;F/T readings" style="rounded=1;whiteSpace=wrap;html=1;fillColor=none;fontSize=14;align=center;" vertex="1" parent="WIyWlLk6GJQsqaUBKTNV-1">
          <mxGeometry x="200" y="825" width="140" height="60" as="geometry" />
        </mxCell>
        <mxCell id="y_4XGHRnrFUpQpmTQRgS-93" style="edgeStyle=orthogonalEdgeStyle;rounded=0;jumpStyle=none;orthogonalLoop=1;jettySize=auto;html=1;exitX=0.5;exitY=0;exitDx=0;exitDy=0;entryX=0.5;entryY=1;entryDx=0;entryDy=0;fontSize=14;" edge="1" parent="WIyWlLk6GJQsqaUBKTNV-1" source="y_4XGHRnrFUpQpmTQRgS-87" target="y_4XGHRnrFUpQpmTQRgS-89">
          <mxGeometry relative="1" as="geometry" />
        </mxCell>
        <mxCell id="y_4XGHRnrFUpQpmTQRgS-87" value="&lt;span style=&quot;background-color: rgb(153 , 204 , 255)&quot;&gt;Insertion Force Test&lt;/span&gt;" style="rounded=1;whiteSpace=wrap;html=1;fontSize=14;align=center;" vertex="1" parent="WIyWlLk6GJQsqaUBKTNV-1">
          <mxGeometry x="353.13" y="680" width="140" height="40" as="geometry" />
        </mxCell>
        <mxCell id="y_4XGHRnrFUpQpmTQRgS-95" style="edgeStyle=orthogonalEdgeStyle;rounded=0;jumpStyle=none;orthogonalLoop=1;jettySize=auto;html=1;exitX=0.5;exitY=0;exitDx=0;exitDy=0;entryX=0.5;entryY=1;entryDx=0;entryDy=0;fontSize=14;" edge="1" parent="WIyWlLk6GJQsqaUBKTNV-1" source="y_4XGHRnrFUpQpmTQRgS-89" target="y_4XGHRnrFUpQpmTQRgS-94">
          <mxGeometry relative="1" as="geometry" />
        </mxCell>
        <mxCell id="y_4XGHRnrFUpQpmTQRgS-89" value="&lt;div&gt;&lt;span&gt;Place Voyager with stick to PDSP&lt;/span&gt;&lt;/div&gt;" style="rounded=1;whiteSpace=wrap;html=1;fontSize=14;align=center;" vertex="1" parent="WIyWlLk6GJQsqaUBKTNV-1">
          <mxGeometry x="353.13" y="607.5" width="140" height="52.5" as="geometry" />
        </mxCell>
        <mxCell id="y_4XGHRnrFUpQpmTQRgS-90" style="edgeStyle=orthogonalEdgeStyle;rounded=0;orthogonalLoop=1;jettySize=auto;html=1;exitX=1;exitY=0.5;exitDx=0;exitDy=0;fontSize=14;entryX=1;entryY=0.5;entryDx=0;entryDy=0;" edge="1" parent="WIyWlLk6GJQsqaUBKTNV-1" source="y_4XGHRnrFUpQpmTQRgS-30" target="y_4XGHRnrFUpQpmTQRgS-57">
          <mxGeometry relative="1" as="geometry">
            <mxPoint x="257.17999999999984" y="580" as="sourcePoint" />
            <mxPoint x="300" y="610" as="targetPoint" />
          </mxGeometry>
        </mxCell>
        <mxCell id="y_4XGHRnrFUpQpmTQRgS-91" value="yes,&amp;nbsp;&lt;br&gt;last loop" style="text;html=1;strokeColor=none;fillColor=none;align=right;verticalAlign=middle;whiteSpace=wrap;rounded=0;fontSize=14;" vertex="1" parent="WIyWlLk6GJQsqaUBKTNV-1">
          <mxGeometry x="207.5" y="590" width="70" height="40" as="geometry" />
        </mxCell>
        <mxCell id="y_4XGHRnrFUpQpmTQRgS-99" style="edgeStyle=orthogonalEdgeStyle;rounded=0;jumpStyle=none;orthogonalLoop=1;jettySize=auto;html=1;exitX=0.5;exitY=0;exitDx=0;exitDy=0;fontSize=14;" edge="1" parent="WIyWlLk6GJQsqaUBKTNV-1" source="y_4XGHRnrFUpQpmTQRgS-94" target="y_4XGHRnrFUpQpmTQRgS-98">
          <mxGeometry relative="1" as="geometry" />
        </mxCell>
        <mxCell id="y_4XGHRnrFUpQpmTQRgS-94" value="&lt;span style=&quot;background-color: rgb(153 , 204 , 255)&quot;&gt;PDSP test&lt;/span&gt;" style="rounded=1;whiteSpace=wrap;html=1;fontSize=14;align=center;" vertex="1" parent="WIyWlLk6GJQsqaUBKTNV-1">
          <mxGeometry x="353.13" y="550" width="140" height="35" as="geometry" />
        </mxCell>
        <mxCell id="y_4XGHRnrFUpQpmTQRgS-101" style="edgeStyle=orthogonalEdgeStyle;rounded=0;jumpStyle=none;orthogonalLoop=1;jettySize=auto;html=1;exitX=0.5;exitY=0;exitDx=0;exitDy=0;entryX=0.5;entryY=1;entryDx=0;entryDy=0;fontSize=14;" edge="1" parent="WIyWlLk6GJQsqaUBKTNV-1" source="y_4XGHRnrFUpQpmTQRgS-98" target="y_4XGHRnrFUpQpmTQRgS-100">
          <mxGeometry relative="1" as="geometry" />
        </mxCell>
        <mxCell id="y_4XGHRnrFUpQpmTQRgS-98" value="Take Voyager with stick safely using tweezer from PDSP" style="rounded=1;whiteSpace=wrap;html=1;fontSize=14;align=center;" vertex="1" parent="WIyWlLk6GJQsqaUBKTNV-1">
          <mxGeometry x="353.13" y="470" width="140" height="55" as="geometry" />
        </mxCell>
        <mxCell id="y_4XGHRnrFUpQpmTQRgS-103" style="edgeStyle=orthogonalEdgeStyle;rounded=0;jumpStyle=none;orthogonalLoop=1;jettySize=auto;html=1;exitX=0.5;exitY=0;exitDx=0;exitDy=0;entryX=0.5;entryY=1;entryDx=0;entryDy=0;fontSize=14;" edge="1" parent="WIyWlLk6GJQsqaUBKTNV-1" source="y_4XGHRnrFUpQpmTQRgS-100" target="y_4XGHRnrFUpQpmTQRgS-102">
          <mxGeometry relative="1" as="geometry" />
        </mxCell>
        <mxCell id="y_4XGHRnrFUpQpmTQRgS-100" value="&#xa;&#xa;&lt;span style=&quot;color: rgb(0, 0, 0); font-family: helvetica; font-size: 14px; font-style: normal; font-weight: 400; letter-spacing: normal; text-align: center; text-indent: 0px; text-transform: none; word-spacing: 0px; background-color: rgb(248, 249, 250); display: inline; float: none;&quot;&gt;Place Voyager upon PGN-PLUS-E-100-1 tool platform&amp;nbsp;&lt;/span&gt;&#xa;&#xa;" style="rounded=1;whiteSpace=wrap;html=1;fontSize=14;align=center;" vertex="1" parent="WIyWlLk6GJQsqaUBKTNV-1">
          <mxGeometry x="353.13" y="387.5" width="140" height="55" as="geometry" />
        </mxCell>
        <mxCell id="y_4XGHRnrFUpQpmTQRgS-105" style="edgeStyle=orthogonalEdgeStyle;rounded=0;jumpStyle=none;orthogonalLoop=1;jettySize=auto;html=1;exitX=0.5;exitY=0;exitDx=0;exitDy=0;entryX=0.5;entryY=1;entryDx=0;entryDy=0;fontSize=14;" edge="1" parent="WIyWlLk6GJQsqaUBKTNV-1" source="y_4XGHRnrFUpQpmTQRgS-102" target="y_4XGHRnrFUpQpmTQRgS-104">
          <mxGeometry relative="1" as="geometry" />
        </mxCell>
        <mxCell id="y_4XGHRnrFUpQpmTQRgS-102" value="PGN-PLUS-E-100-1 fix Voyager&amp;nbsp;" style="rounded=1;whiteSpace=wrap;html=1;fontSize=14;align=center;" vertex="1" parent="WIyWlLk6GJQsqaUBKTNV-1">
          <mxGeometry x="353.13" y="305" width="140" height="55" as="geometry" />
        </mxCell>
        <mxCell id="y_4XGHRnrFUpQpmTQRgS-107" style="edgeStyle=orthogonalEdgeStyle;rounded=0;jumpStyle=none;orthogonalLoop=1;jettySize=auto;html=1;exitX=0.5;exitY=0;exitDx=0;exitDy=0;entryX=0.5;entryY=0;entryDx=0;entryDy=0;fontSize=14;" edge="1" parent="WIyWlLk6GJQsqaUBKTNV-1" source="y_4XGHRnrFUpQpmTQRgS-104" target="y_4XGHRnrFUpQpmTQRgS-106">
          <mxGeometry relative="1" as="geometry" />
        </mxCell>
        <mxCell id="y_4XGHRnrFUpQpmTQRgS-104" value="&lt;span style=&quot;background-color: rgb(153 , 204 , 255)&quot;&gt;Extraction Force Test&lt;/span&gt;" style="rounded=1;whiteSpace=wrap;html=1;fontSize=14;align=center;" vertex="1" parent="WIyWlLk6GJQsqaUBKTNV-1">
          <mxGeometry x="353.13" y="240" width="140" height="40" as="geometry" />
        </mxCell>
        <mxCell id="y_4XGHRnrFUpQpmTQRgS-109" style="edgeStyle=orthogonalEdgeStyle;rounded=0;jumpStyle=none;orthogonalLoop=1;jettySize=auto;html=1;exitX=0.5;exitY=1;exitDx=0;exitDy=0;entryX=0.5;entryY=0;entryDx=0;entryDy=0;fontSize=14;" edge="1" parent="WIyWlLk6GJQsqaUBKTNV-1" source="y_4XGHRnrFUpQpmTQRgS-106" target="y_4XGHRnrFUpQpmTQRgS-108">
          <mxGeometry relative="1" as="geometry" />
        </mxCell>
        <mxCell id="y_4XGHRnrFUpQpmTQRgS-106" value="Throw stick to recycle bin" style="rounded=1;whiteSpace=wrap;html=1;fontSize=14;align=center;" vertex="1" parent="WIyWlLk6GJQsqaUBKTNV-1">
          <mxGeometry x="558.75" y="240" width="127.5" height="55" as="geometry" />
        </mxCell>
        <mxCell id="y_4XGHRnrFUpQpmTQRgS-110" style="edgeStyle=orthogonalEdgeStyle;rounded=0;jumpStyle=none;orthogonalLoop=1;jettySize=auto;html=1;exitX=0.5;exitY=1;exitDx=0;exitDy=0;entryX=0.5;entryY=0;entryDx=0;entryDy=0;fontSize=14;" edge="1" parent="WIyWlLk6GJQsqaUBKTNV-1" source="y_4XGHRnrFUpQpmTQRgS-108" target="y_4XGHRnrFUpQpmTQRgS-49">
          <mxGeometry relative="1" as="geometry" />
        </mxCell>
        <mxCell id="y_4XGHRnrFUpQpmTQRgS-108" value="UR robot move to start position" style="rounded=1;whiteSpace=wrap;html=1;fontSize=14;align=center;" vertex="1" parent="WIyWlLk6GJQsqaUBKTNV-1">
          <mxGeometry x="558.75" y="322.5" width="127.5" height="55" as="geometry" />
        </mxCell>
      </root>
    </mxGraphModel>
  </diagram>
</mxfile>
